<?xml version="1.0" standalone="no"?>
<!DOCTYPE svg PUBLIC "-//W3C//DTD SVG 20010904//EN"
 "http://www.w3.org/TR/2001/REC-SVG-20010904/DTD/svg10.dtd">
<svg version="1.0" xmlns="http://www.w3.org/2000/svg"
 width="292.000000pt" height="292.000000pt" viewBox="0 0 292.000000 292.000000"
 preserveAspectRatio="xMidYMid meet">
<metadata>
Created by potrace 1.14, written by Peter Selinger 2001-2017
</metadata>
<g transform="translate(0.000000,292.000000) scale(0.100000,-0.100000)"
fill="#000000" stroke="none">
<path d="M820 2136 c-30 -7 -72 -20 -94 -29 -43 -19 -44 -26 -11 -142 22 -76
22 -77 46 -64 70 37 209 45 256 14 34 -23 51 -64 47 -115 -8 -93 -73 -137
-206 -139 l-38 -1 0 -100 0 -100 58 -1 c162 -2 222 -43 230 -159 8 -105 -42
-161 -153 -175 -22 -2 -117 27 -137 43 -86 67 -146 157 -204 306 -34 88 -49
108 -68 89 -3 -4 -12 -8 -19 -9 -7 -1 -30 -10 -52 -20 -22 -10 -42 -18 -45
-19 -26 -8 -40 -20 -40 -35 0 -32 78 -212 127 -292 92 -153 217 -252 348 -276
42 -7 153 -6 195 2 91 18 185 81 232 155 38 61 51 111 50 197 l-1 72 42 7 c23
4 47 9 52 10 42 11 40 24 42 -258 1 -148 4 -274 6 -280 3 -9 36 -12 108 -11
57 1 107 2 111 3 4 0 9 250 10 553 l3 553 150 1 c83 0 155 -1 160 -3 7 -2 10
-191 9 -546 0 -298 1 -547 3 -552 2 -6 48 -10 116 -10 l112 0 0 550 c-1 303 3
552 7 555 4 3 39 5 78 5 l71 -1 -3 101 -3 100 -467 0 c-410 0 -468 -2 -469
-15 0 -8 0 -131 -1 -272 l0 -257 -39 -15 c-75 -30 -193 -37 -239 -14 -50 24
-50 27 5 81 122 124 124 303 3 425 -23 23 -47 42 -55 42 -7 0 -13 4 -13 8 0 8
-45 27 -92 39 -46 12 -174 11 -228 -1z"/>
</g>
</svg>
